<svg width="81" height="81" viewBox="0 0 81 81" fill="none" xmlns="http://www.w3.org/2000/svg">
<path d="M54.3435 60.5145L45.2437 69.3056C43.6642 70.8876 41.4873 71.5457 39.0877 71.5457C36.688 71.5457 34.5137 70.8876 32.9317 69.3056L18.3112 54.5939C16.7418 53.0119 15.9394 50.7034 15.9394 48.3038C15.9394 45.894 16.7418 43.7172 18.3112 42.1478L32.8912 27.3552C34.4605 25.7883 36.688 25.1808 39.0877 25.1808C41.4873 25.1808 43.6642 25.8389 45.2437 27.421L54.3435 36.212C56.0825 37.9535 58.958 37.8902 60.7628 36.0804C62.5549 34.2756 62.6232 31.4026 60.8817 29.6611L52.0907 20.7739C49.8135 18.5277 46.9549 16.9613 43.8363 16.2506L52.1565 7.81391C53.898 6.07494 53.8449 3.19944 52.0376 1.39466C50.2302 -0.410121 47.3573 -0.465809 45.6183 1.26304L11.5249 35.3564C8.21655 38.6774 6.49023 43.2362 6.49023 48.2987C6.49023 53.3511 8.21908 58.0693 11.5249 61.3802L26.1985 76.0918C29.5069 79.4002 34.0834 80.9949 39.1459 80.9949C44.1957 80.9949 48.7672 79.266 52.078 75.9602L60.8843 67.0477C62.6258 65.3188 62.5574 62.4484 60.7526 60.6411C58.9479 58.8338 56.0724 58.768 54.346 60.5095L54.3435 60.5145ZM70.2398 43.9146H35.9894C33.6303 43.9146 31.7065 45.9421 31.7065 48.4481C31.7065 50.9565 33.6303 52.9967 35.9894 52.9967H70.2398C72.6014 52.9967 74.5252 50.954 74.5252 48.4481C74.5252 45.9447 72.6014 43.9146 70.2398 43.9146Z" fill="black"/>
</svg>
