<svg width="90" height="90" viewBox="0 0 90 90" fill="none" xmlns="http://www.w3.org/2000/svg">
<path fill-rule="evenodd" clip-rule="evenodd" d="M0.0832531 7.58855C0.0832531 5.59806 0.873974 3.68909 2.28147 2.2816C3.68896 0.874105 5.59792 0.083384 7.58842 0.083384H82.4032C83.3897 0.0817729 84.3667 0.274741 85.2785 0.65124C86.1902 1.02774 87.0188 1.58037 87.7167 2.27751C88.4146 2.97464 88.9681 3.80258 89.3456 4.71392C89.7231 5.62527 89.9171 6.60212 89.9166 7.58855V82.4034C89.9176 83.39 89.7242 84.3672 89.3472 85.2789C88.9703 86.1907 88.4173 87.0192 87.7198 87.7171C87.0223 88.4149 86.1941 88.9684 85.2826 89.3458C84.371 89.7233 83.3939 89.9173 82.4073 89.9167H7.58842C6.60248 89.9167 5.62621 89.7225 4.71537 89.345C3.80454 88.9676 2.97699 88.4144 2.28002 87.7171C1.58305 87.0197 1.03031 86.1919 0.653377 85.2808C0.276448 84.3698 0.0827166 83.3934 0.0832531 82.4075V7.58855ZM35.6409 34.3344H47.8052V40.4431C49.561 36.9314 54.0527 33.7709 60.8024 33.7709C73.7425 33.7709 76.8091 40.7656 76.8091 53.5996V77.3727H63.7138V56.5232C63.7138 49.2141 61.958 45.0899 57.499 45.0899C51.3127 45.0899 48.7402 49.5366 48.7402 56.5232V77.3727H35.6409V34.3344ZM13.1826 76.8133H26.2819V33.7709H13.1826V76.8092V76.8133ZM28.1562 19.7324C28.1809 20.854 27.9813 21.9692 27.5691 23.0126C27.157 24.056 26.5406 25.0066 25.7561 25.8085C24.9716 26.6105 24.0349 27.2476 23.0008 27.6827C21.9667 28.1177 20.8561 28.3418 19.7343 28.3418C18.6124 28.3418 17.5019 28.1177 16.4678 27.6827C15.4337 27.2476 14.497 26.6105 13.7125 25.8085C12.928 25.0066 12.3116 24.056 11.8994 23.0126C11.4873 21.9692 11.2877 20.854 11.3124 19.7324C11.3609 17.5309 12.2695 15.4359 13.8436 13.896C15.4177 12.3562 17.5322 11.4939 19.7343 11.4939C21.9363 11.4939 24.0508 12.3562 25.625 13.896C27.1991 15.4359 28.1077 17.5309 28.1562 19.7324V19.7324Z" fill="black"/>
</svg>
